# xmcd
#
# Track frame offsets: 
#        150
#        17574
#        34903
#        50159
#        70191
#        91397
#        107708
#        123392
#        138955
#        155368
#        179933
#        192666
#        217622
#        230848
#        247819
#        263067
#        281650
#        308134
#        324834
#        340861
#
# Disc length: 4705 seconds
#
# Revision: 1
# Processed by: cddbd v1.5.2PL0 Copyright (c) Steve Scherf et al.
# Submitted via: ExactAudioCopy v1.1
#
DISCID=23125f14
DTITLE=Various Artist - De Pre Historie 70 - CD 1
DYEAR=2010
DGENRE=Top 40
TTITLE0=Bachman Turner Overdrive - You Ain't Seen Nothing Yet
TTITLE1=Robert Palmer - Best Of Both Worlds
TTITLE2=Barry White - You're The First, The Last, My Everything
TTITLE3=Matthew's Southern Comfort - Woodstock
TTITLE4=Lynyrd Skynyrd - Sweet Home Alabama
TTITLE5=Commodores - Three Times A Lady
TTITLE6=Will Tura - Omdat Ik Vlaming Ben
TTITLE7=Chic - Le Freak
TTITLE8=Joe Jackson - Is She Really Going Out With Him
TTITLE9=The Stylistics - You Make Me Feel Brand New
TTITLE10=James Brown - Sex Machine
TTITLE11=Free - All Right Now
TTITLE12=Gallagher and Lyle - I Wanna Stay With You
TTITLE13=Grace Jones - La Vie En Rose
TTITLE14=Kool and The Gang - Ladies Night
TTITLE15=Doug Ashdown - Winter In America
TTITLE16=John Miles - Music
TTITLE17=Village People - Y.M.C.A.
TTITLE18=Slik - Forever And Ever
TTITLE19=Lieutenant Pigeon - Mouldy Old Dough
EXTD=
EXTT0=
EXTT1=
EXTT2=
EXTT3=
EXTT4=
EXTT5=
EXTT6=
EXTT7=
EXTT8=
EXTT9=
EXTT10=
EXTT11=
EXTT12=
EXTT13=
EXTT14=
EXTT15=
EXTT16=
EXTT17=
EXTT18=
EXTT19=
PLAYORDER=
